<svg width="217" height="65" viewBox="0 0 217 65" fill="none" xmlns="http://www.w3.org/2000/svg">
<path d="M111.41 45.1597H106.04L99.8799 25.1597L93.7199 45.1597H88.3499L82.3899 16.1597H87.5099L91.6299 36.3297L97.7099 16.6097H102.21L108.17 36.3297L112.38 16.1597H117.3L111.43 45.1597H111.41Z" fill="#010000"/>
<path d="M139.28 34.6899C139.25 34.8799 139.24 35.0599 139.24 35.2199V36.1199H124.75C124.75 36.9399 124.88 37.7199 125.15 38.4499C125.41 39.1899 125.81 39.7999 126.34 40.2899C126.73 40.6399 127.18 40.9499 127.69 41.2099C128.2 41.4699 128.82 41.5999 129.54 41.5999C130.26 41.5999 130.91 41.5199 131.39 41.3799C131.88 41.2299 132.31 40.9599 132.7 40.5799C133.2 40.0899 133.55 39.4899 133.74 38.7799H138.74C138.68 39.4099 138.47 40.0999 138.09 40.8499C137.71 41.5999 137.32 42.2199 136.9 42.7099C135.98 43.7699 134.89 44.5399 133.61 44.9999C132.33 45.4599 131 45.6999 129.61 45.6999C128.11 45.6999 126.81 45.4599 125.72 44.9799C124.62 44.4999 123.64 43.8699 122.78 43.0799C121.7 42.0399 120.87 40.7999 120.3 39.3599C119.73 37.9099 119.45 36.3199 119.45 34.5699C119.45 32.8199 119.71 31.2599 120.22 29.7999C120.73 28.3399 121.52 27.0899 122.57 26.0599C123.38 25.2399 124.35 24.5899 125.51 24.0999C126.67 23.6099 127.99 23.3599 129.49 23.3599C131.1 23.3599 132.6 23.6799 133.99 24.3199C135.38 24.9599 136.52 25.9499 137.4 27.2899C138.21 28.4599 138.72 29.6599 138.94 30.8699C139.16 32.0799 139.27 33.3599 139.27 34.6999L139.28 34.6899ZM134.07 32.3999C134.04 30.8499 133.6 29.5999 132.74 28.6799C132.38 28.2999 131.93 27.9999 131.39 27.7799C130.85 27.5599 130.2 27.4499 129.45 27.4499C128.64 27.4499 127.94 27.5999 127.33 27.8999C126.72 28.1999 126.22 28.5999 125.83 29.0899C125.44 29.5499 125.16 30.0399 125 30.5599C124.83 31.0799 124.74 31.6899 124.71 32.3999H134.08H134.07Z" fill="#010000"/>
<path d="M152.56 45.1198C152.03 45.2298 151.65 45.2998 151.41 45.3398C151.17 45.3798 150.79 45.3998 150.26 45.3998C148.48 45.3998 147.05 44.9498 145.97 44.0498C144.89 43.1498 144.35 41.6898 144.35 39.6698V15.5898H149.6V38.8298C149.6 39.4598 149.72 39.9498 149.97 40.3198C150.22 40.6898 150.79 40.8698 151.68 40.8698C151.9 40.8698 152.07 40.8698 152.18 40.8498C152.29 40.8398 152.42 40.8298 152.55 40.8298V45.1298L152.56 45.1198Z" fill="#010000"/>
<path d="M175.51 34.6899C175.48 34.8799 175.47 35.0599 175.47 35.2199V36.1199H160.98C160.98 36.9399 161.11 37.7199 161.38 38.4499C161.64 39.1899 162.04 39.7999 162.57 40.2899C162.96 40.6399 163.41 40.9499 163.92 41.2099C164.43 41.4699 165.05 41.5999 165.77 41.5999C166.49 41.5999 167.14 41.5199 167.62 41.3799C168.11 41.2299 168.54 40.9599 168.93 40.5799C169.43 40.0899 169.78 39.4899 169.97 38.7799H174.97C174.91 39.4099 174.7 40.0999 174.32 40.8499C173.94 41.5999 173.55 42.2199 173.13 42.7099C172.21 43.7699 171.12 44.5399 169.84 44.9999C168.56 45.4599 167.23 45.6999 165.84 45.6999C164.34 45.6999 163.04 45.4599 161.95 44.9799C160.85 44.4999 159.87 43.8699 159.01 43.0799C157.93 42.0399 157.1 40.7999 156.53 39.3599C155.96 37.9099 155.68 36.3199 155.68 34.5699C155.68 32.8199 155.94 31.2599 156.45 29.7999C156.96 28.3399 157.75 27.0899 158.8 26.0599C159.61 25.2399 160.58 24.5899 161.74 24.0999C162.9 23.6099 164.22 23.3599 165.72 23.3599C167.33 23.3599 168.83 23.6799 170.22 24.3199C171.61 24.9599 172.75 25.9499 173.63 27.2899C174.44 28.4599 174.95 29.6599 175.17 30.8699C175.39 32.0799 175.5 33.3599 175.5 34.6999L175.51 34.6899ZM170.3 32.3999C170.27 30.8499 169.83 29.5999 168.97 28.6799C168.61 28.2999 168.16 27.9999 167.62 27.7799C167.08 27.5599 166.43 27.4499 165.68 27.4499C164.87 27.4499 164.17 27.5999 163.56 27.8999C162.95 28.1999 162.45 28.5999 162.06 29.0899C161.67 29.5499 161.39 30.0399 161.23 30.5599C161.06 31.0799 160.97 31.6899 160.94 32.3999H170.31H170.3Z" fill="#010000"/>
<path d="M199.58 44.9199C199.13 45.1099 198.75 45.2499 198.43 45.3499C198.11 45.4499 197.63 45.4899 196.99 45.4899C195.85 45.4899 194.98 45.1899 194.37 44.5899C193.76 43.9899 193.41 43.2999 193.33 42.4999C192.83 43.3699 192 44.1199 190.83 44.7499C189.66 45.3799 188.3 45.6899 186.75 45.6899C185.44 45.6899 184.31 45.5099 183.33 45.1399C182.36 44.7699 181.55 44.2799 180.89 43.6699C180.24 43.0599 179.74 42.3499 179.41 41.5399C179.08 40.7399 178.91 39.8999 178.91 39.0199C178.91 38.0099 179.1 37.1099 179.47 36.3199C179.84 35.5299 180.37 34.8499 181.03 34.2799C181.7 33.7099 182.47 33.2599 183.36 32.9499C184.25 32.6399 185.21 32.4399 186.23 32.3599L192.6 31.9099V30.5999C192.6 29.5899 192.36 28.7799 191.87 28.1699C191.38 27.5599 190.41 27.2499 188.93 27.2499C187.71 27.2499 186.76 27.5099 186.08 28.0299C185.4 28.5499 185.03 29.2999 184.98 30.2799H179.94C180.02 29.0799 180.31 28.0399 180.79 27.1699C181.28 26.2999 181.92 25.5799 182.73 25.0199C183.54 24.4599 184.46 24.0499 185.52 23.7699C186.58 23.4999 187.71 23.3599 188.94 23.3599C190.8 23.3599 192.46 23.6799 193.92 24.3199C195.38 24.9599 196.43 26.0899 197.06 27.6899C197.34 28.3699 197.51 29.0799 197.58 29.8199C197.65 30.5599 197.68 31.2799 197.68 31.9899V39.8899C197.68 40.3799 197.77 40.7299 197.95 40.9299C198.13 41.1399 198.44 41.2399 198.89 41.2399C199.11 41.2399 199.26 41.2299 199.35 41.1999C199.43 41.1999 199.5 41.1899 199.56 41.1599V44.9199H199.58ZM192.62 35.7099L187.12 36.1199C186.31 36.1699 185.59 36.4299 184.96 36.8999C184.32 37.3599 184 38.0299 184 38.8999C184 39.7199 184.31 40.3699 184.94 40.8399C185.56 41.3199 186.28 41.5599 187.08 41.5599C188.72 41.5599 190.05 41.1399 191.08 40.3099C192.11 39.4799 192.62 38.2699 192.62 36.6899V35.7099Z" fill="#010000"/>
<path d="M216.99 19.6799C216.43 19.5699 215.9 19.4899 215.39 19.4299C214.88 19.3799 214.27 19.3499 213.58 19.3499C212.64 19.3499 211.93 19.5899 211.46 20.0699C210.99 20.5499 210.75 21.1699 210.75 21.9299V23.8899H216.54V28.0999H210.75V45.1599H205.54V28.0999H201.88V23.8899H205.54V21.8399C205.54 19.8799 206.19 18.2699 207.48 17.0099C208.77 15.7599 210.58 15.1299 212.92 15.1299C213.67 15.1299 214.34 15.1599 214.92 15.2299C215.5 15.2999 216.2 15.4099 217 15.5799V19.6699L216.99 19.6799Z" fill="#010000"/>
<path d="M111.41 45.1597H106.04L99.8799 25.1597L93.7199 45.1597H88.3499L82.3899 16.1597H87.5099L91.6299 36.3297L97.7099 16.6097H102.21L108.17 36.3297L112.38 16.1597H117.3L111.43 45.1597H111.41Z" fill="url(#paint0_linear_2406_236)"/>
<path d="M139.28 34.6899C139.25 34.8799 139.24 35.0599 139.24 35.2199V36.1199H124.75C124.75 36.9399 124.88 37.7199 125.15 38.4499C125.41 39.1899 125.81 39.7999 126.34 40.2899C126.73 40.6399 127.18 40.9499 127.69 41.2099C128.2 41.4699 128.82 41.5999 129.54 41.5999C130.26 41.5999 130.91 41.5199 131.39 41.3799C131.88 41.2299 132.31 40.9599 132.7 40.5799C133.2 40.0899 133.55 39.4899 133.74 38.7799H138.74C138.68 39.4099 138.47 40.0999 138.09 40.8499C137.71 41.5999 137.32 42.2199 136.9 42.7099C135.98 43.7699 134.89 44.5399 133.61 44.9999C132.33 45.4599 131 45.6999 129.61 45.6999C128.11 45.6999 126.81 45.4599 125.72 44.9799C124.62 44.4999 123.64 43.8699 122.78 43.0799C121.7 42.0399 120.87 40.7999 120.3 39.3599C119.73 37.9099 119.45 36.3199 119.45 34.5699C119.45 32.8199 119.71 31.2599 120.22 29.7999C120.73 28.3399 121.52 27.0899 122.57 26.0599C123.38 25.2399 124.35 24.5899 125.51 24.0999C126.67 23.6099 127.99 23.3599 129.49 23.3599C131.1 23.3599 132.6 23.6799 133.99 24.3199C135.38 24.9599 136.52 25.9499 137.4 27.2899C138.21 28.4599 138.72 29.6599 138.94 30.8699C139.16 32.0799 139.27 33.3599 139.27 34.6999L139.28 34.6899ZM134.07 32.3999C134.04 30.8499 133.6 29.5999 132.74 28.6799C132.38 28.2999 131.93 27.9999 131.39 27.7799C130.85 27.5599 130.2 27.4499 129.45 27.4499C128.64 27.4499 127.94 27.5999 127.33 27.8999C126.72 28.1999 126.22 28.5999 125.83 29.0899C125.44 29.5499 125.16 30.0399 125 30.5599C124.83 31.0799 124.74 31.6899 124.71 32.3999H134.08H134.07Z" fill="url(#paint1_linear_2406_236)"/>
<path d="M152.56 45.1198C152.03 45.2298 151.65 45.2998 151.41 45.3398C151.17 45.3798 150.79 45.3998 150.26 45.3998C148.48 45.3998 147.05 44.9498 145.97 44.0498C144.89 43.1498 144.35 41.6898 144.35 39.6698V15.5898H149.6V38.8298C149.6 39.4598 149.72 39.9498 149.97 40.3198C150.22 40.6898 150.79 40.8698 151.68 40.8698C151.9 40.8698 152.07 40.8698 152.18 40.8498C152.29 40.8398 152.42 40.8298 152.55 40.8298V45.1298L152.56 45.1198Z" fill="url(#paint2_linear_2406_236)"/>
<path d="M175.51 34.6899C175.48 34.8799 175.47 35.0599 175.47 35.2199V36.1199H160.98C160.98 36.9399 161.11 37.7199 161.38 38.4499C161.64 39.1899 162.04 39.7999 162.57 40.2899C162.96 40.6399 163.41 40.9499 163.92 41.2099C164.43 41.4699 165.05 41.5999 165.77 41.5999C166.49 41.5999 167.14 41.5199 167.62 41.3799C168.11 41.2299 168.54 40.9599 168.93 40.5799C169.43 40.0899 169.78 39.4899 169.97 38.7799H174.97C174.91 39.4099 174.7 40.0999 174.32 40.8499C173.94 41.5999 173.55 42.2199 173.13 42.7099C172.21 43.7699 171.12 44.5399 169.84 44.9999C168.56 45.4599 167.23 45.6999 165.84 45.6999C164.34 45.6999 163.04 45.4599 161.95 44.9799C160.85 44.4999 159.87 43.8699 159.01 43.0799C157.93 42.0399 157.1 40.7999 156.53 39.3599C155.96 37.9099 155.68 36.3199 155.68 34.5699C155.68 32.8199 155.94 31.2599 156.45 29.7999C156.96 28.3399 157.75 27.0899 158.8 26.0599C159.61 25.2399 160.58 24.5899 161.74 24.0999C162.9 23.6099 164.22 23.3599 165.72 23.3599C167.33 23.3599 168.83 23.6799 170.22 24.3199C171.61 24.9599 172.75 25.9499 173.63 27.2899C174.44 28.4599 174.95 29.6599 175.17 30.8699C175.39 32.0799 175.5 33.3599 175.5 34.6999L175.51 34.6899ZM170.3 32.3999C170.27 30.8499 169.83 29.5999 168.97 28.6799C168.61 28.2999 168.16 27.9999 167.62 27.7799C167.08 27.5599 166.43 27.4499 165.68 27.4499C164.87 27.4499 164.17 27.5999 163.56 27.8999C162.95 28.1999 162.45 28.5999 162.06 29.0899C161.67 29.5499 161.39 30.0399 161.23 30.5599C161.06 31.0799 160.97 31.6899 160.94 32.3999H170.31H170.3Z" fill="url(#paint3_linear_2406_236)"/>
<path d="M199.58 44.9199C199.13 45.1099 198.75 45.2499 198.43 45.3499C198.11 45.4499 197.63 45.4899 196.99 45.4899C195.85 45.4899 194.98 45.1899 194.37 44.5899C193.76 43.9899 193.41 43.2999 193.33 42.4999C192.83 43.3699 192 44.1199 190.83 44.7499C189.66 45.3799 188.3 45.6899 186.75 45.6899C185.44 45.6899 184.31 45.5099 183.33 45.1399C182.36 44.7699 181.55 44.2799 180.89 43.6699C180.24 43.0599 179.74 42.3499 179.41 41.5399C179.08 40.7399 178.91 39.8999 178.91 39.0199C178.91 38.0099 179.1 37.1099 179.47 36.3199C179.84 35.5299 180.37 34.8499 181.03 34.2799C181.7 33.7099 182.47 33.2599 183.36 32.9499C184.25 32.6399 185.21 32.4399 186.23 32.3599L192.6 31.9099V30.5999C192.6 29.5899 192.36 28.7799 191.87 28.1699C191.38 27.5599 190.41 27.2499 188.93 27.2499C187.71 27.2499 186.76 27.5099 186.08 28.0299C185.4 28.5499 185.03 29.2999 184.98 30.2799H179.94C180.02 29.0799 180.31 28.0399 180.79 27.1699C181.28 26.2999 181.92 25.5799 182.73 25.0199C183.54 24.4599 184.46 24.0499 185.52 23.7699C186.58 23.4999 187.71 23.3599 188.94 23.3599C190.8 23.3599 192.46 23.6799 193.92 24.3199C195.38 24.9599 196.43 26.0899 197.06 27.6899C197.34 28.3699 197.51 29.0799 197.58 29.8199C197.65 30.5599 197.68 31.2799 197.68 31.9899V39.8899C197.68 40.3799 197.77 40.7299 197.95 40.9299C198.13 41.1399 198.44 41.2399 198.89 41.2399C199.11 41.2399 199.26 41.2299 199.35 41.1999C199.43 41.1999 199.5 41.1899 199.56 41.1599V44.9199H199.58ZM192.62 35.7099L187.12 36.1199C186.31 36.1699 185.59 36.4299 184.96 36.8999C184.32 37.3599 184 38.0299 184 38.8999C184 39.7199 184.31 40.3699 184.94 40.8399C185.56 41.3199 186.28 41.5599 187.08 41.5599C188.72 41.5599 190.05 41.1399 191.08 40.3099C192.11 39.4799 192.62 38.2699 192.62 36.6899V35.7099Z" fill="url(#paint4_linear_2406_236)"/>
<path d="M216.99 19.6799C216.43 19.5699 215.9 19.4899 215.39 19.4299C214.88 19.3799 214.27 19.3499 213.58 19.3499C212.64 19.3499 211.93 19.5899 211.46 20.0699C210.99 20.5499 210.75 21.1699 210.75 21.9299V23.8899H216.54V28.0999H210.75V45.1599H205.54V28.0999H201.88V23.8899H205.54V21.8399C205.54 19.8799 206.19 18.2699 207.48 17.0099C208.77 15.7599 210.58 15.1299 212.92 15.1299C213.67 15.1299 214.34 15.1599 214.92 15.2299C215.5 15.2999 216.2 15.4099 217 15.5799V19.6699L216.99 19.6799Z" fill="url(#paint5_linear_2406_236)"/>
<mask id="mask0_2406_236" style="mask-type:luminance" maskUnits="userSpaceOnUse" x="18" y="26" width="28" height="27">
<path d="M32.41 52.6498C39.8437 52.6498 45.8699 46.6907 45.8699 39.3398C45.8699 31.9889 39.8437 26.0298 32.41 26.0298C24.9762 26.0298 18.95 31.9889 18.95 39.3398C18.95 46.6907 24.9762 52.6498 32.41 52.6498Z" fill="white"/>
</mask>
<g mask="url(#mask0_2406_236)">
<path d="M49.2699 32.8596H15.5499C14.9299 32.8596 14.4299 32.3596 14.4299 31.7496C14.4299 31.1396 14.9299 30.6396 15.5499 30.6396H49.2699C49.8899 30.6396 50.3899 31.1396 50.3899 31.7496C50.3899 32.3596 49.8899 32.8596 49.2699 32.8596Z" fill="#1D1E1C"/>
<path d="M49.2699 32.8596H15.5499C14.9299 32.8596 14.4299 32.3596 14.4299 31.7496C14.4299 31.1396 14.9299 30.6396 15.5499 30.6396H49.2699C49.8899 30.6396 50.3899 31.1396 50.3899 31.7496C50.3899 32.3596 49.8899 32.8596 49.2699 32.8596Z" fill="#5E5E5D"/>
<path d="M49.2699 28.2996H15.5499C14.9299 28.2996 14.4299 27.7996 14.4299 27.1896C14.4299 26.5796 14.9299 26.0796 15.5499 26.0796H49.2699C49.8899 26.0796 50.3899 26.5796 50.3899 27.1896C50.3899 27.7996 49.8899 28.2996 49.2699 28.2996Z" fill="#5E5E5D"/>
<path d="M32.41 63.3096C31.79 63.3096 31.29 62.8096 31.29 62.1996V31.8996C31.29 31.2896 31.79 30.7896 32.41 30.7896C33.03 30.7896 33.53 31.2896 33.53 31.8996V62.1996C33.53 62.8096 33.03 63.3096 32.41 63.3096Z" fill="#5E5E5D"/>
<path d="M53.93 59.0697H36V35.2397H53.93V59.0697ZM38.24 56.8597H51.69V37.4497H38.24V56.8597Z" fill="#5E5E5D"/>
<path d="M58.66 56.1699H40.73V39.9199H58.66V56.1699ZM42.97 53.9599H56.42V42.1399H42.97V53.9599Z" fill="#5E5E5D"/>
<path d="M23.96 56.1699H6.03003V39.9199H23.96V56.1699ZM8.27003 53.9599H21.72V42.1399H8.27003V53.9599Z" fill="#5E5E5D"/>
<path d="M28.8001 60.7897H10.8701V35.2397H28.8001V60.7897ZM13.1101 58.5797H26.5601V37.4597H13.1101V58.5797Z" fill="#5E5E5D"/>
</g>
<path d="M114.03 51.6499V57.7499H116.85V59.0199H112.78V51.6499H114.03Z" fill="#5E5E5D"/>
<path d="M122.59 56.1996C122.59 57.9196 121.53 59.0696 119.97 59.0696C118.41 59.0696 117.33 57.9096 117.33 56.1996C117.33 54.4896 118.39 53.3496 119.97 53.3496C121.55 53.3496 122.59 54.4996 122.59 56.1996ZM118.55 56.2196C118.55 57.2296 119.13 57.9296 119.97 57.9296C120.81 57.9296 121.37 57.2396 121.37 56.2196C121.37 55.1996 120.79 54.5096 119.97 54.5096C119.15 54.5096 118.55 55.2096 118.55 56.2196Z" fill="#5E5E5D"/>
<path d="M126.6 59.0196V58.3396C126.25 58.8296 125.69 59.0896 124.98 59.0896C123.91 59.0896 123.23 58.3396 123.23 57.3396C123.23 56.3396 123.91 55.6596 125.12 55.6496H126.58V55.4996C126.58 54.8496 126.2 54.4596 125.45 54.4596C124.98 54.4596 124.48 54.6396 123.97 54.9896L123.53 54.0396C124.25 53.5896 124.81 53.3496 125.72 53.3496C127.03 53.3496 127.76 54.0996 127.77 55.3496V59.0296H126.59L126.6 59.0196ZM126.59 57.0596V56.5496H125.33C124.69 56.5496 124.39 56.7496 124.39 57.2396C124.39 57.7296 124.73 58.0196 125.28 58.0196C125.98 58.0196 126.53 57.5996 126.6 57.0496L126.59 57.0596Z" fill="#5E5E5D"/>
<path d="M134.01 55.4996V59.0196H132.79V55.8996C132.79 55.1096 132.37 54.6296 131.68 54.6296C130.86 54.6296 130.37 55.3196 130.37 56.2496V59.0196H129.16V53.3896H130.37V54.4396C130.73 53.6896 131.35 53.3396 132.16 53.3296C133.31 53.3296 134.01 54.1596 134.01 55.4996Z" fill="#5E5E5D"/>
<path d="M136.86 54.3998C136.47 54.3998 136.19 54.5498 136.19 54.8898C136.19 55.8398 138.83 55.3398 138.83 57.3598C138.83 58.5098 137.92 59.0698 136.86 59.0698C136.1 59.0698 135.32 58.7998 134.8 58.2798L135.22 57.3198C135.68 57.7598 136.37 58.0098 136.91 58.0098C137.33 58.0098 137.65 57.8498 137.65 57.4798C137.65 56.4398 135.05 57.0098 135.06 55.0098C135.06 53.8498 135.94 53.3198 136.95 53.3198C137.6 53.3198 138.29 53.5398 138.78 53.9198L138.34 54.9098C137.85 54.5798 137.3 54.3898 136.87 54.3898L136.86 54.3998Z" fill="#5E5E5D"/>
<path d="M147.46 59.2596L146.47 58.1496C145.9 58.7496 145.24 59.0796 144.53 59.0796C143.34 59.0796 142.43 58.2096 142.43 56.9796C142.43 55.9596 143.08 55.3996 143.81 54.9596C143.4 54.3196 143.21 53.7996 143.21 53.2796C143.21 52.2696 143.89 51.5796 144.96 51.5796C145.97 51.5796 146.67 52.2296 146.67 53.1696C146.67 54.1796 145.9 54.7196 145.1 55.1696C145.44 55.5896 145.86 56.0896 146.37 56.6496C146.58 56.2796 146.76 55.8496 146.91 55.3596L147.7 56.0196C147.52 56.5396 147.3 56.9996 147.05 57.3896L148.09 58.5296L147.46 59.2496V59.2596ZM145.82 57.4296C145.19 56.7396 144.7 56.1596 144.31 55.6496C143.82 55.9796 143.44 56.3496 143.44 56.8796C143.44 57.5696 143.93 58.0496 144.58 58.0496C145.02 58.0496 145.44 57.8296 145.82 57.4296ZM144.62 54.4896C145.22 54.1396 145.7 53.7696 145.7 53.1696C145.7 52.7296 145.41 52.4196 144.97 52.4196C144.49 52.4196 144.18 52.7896 144.18 53.2696C144.18 53.6296 144.32 54.0096 144.62 54.4796V54.4896Z" fill="#5E5E5D"/>
<path d="M156.01 57.4599H152.82L152.24 59.0199H150.94L153.81 51.6499H155.11L157.94 59.0199H156.6L156.02 57.4599H156.01ZM155.56 56.2499L154.42 53.1499L153.26 56.2499H155.56Z" fill="#5E5E5D"/>
<path d="M160.17 54.3998C159.78 54.3998 159.5 54.5498 159.5 54.8898C159.5 55.8398 162.14 55.3398 162.14 57.3598C162.14 58.5098 161.23 59.0698 160.17 59.0698C159.41 59.0698 158.63 58.7998 158.11 58.2798L158.53 57.3198C158.99 57.7598 159.68 58.0098 160.22 58.0098C160.64 58.0098 160.96 57.8498 160.96 57.4798C160.96 56.4398 158.36 57.0098 158.37 55.0098C158.37 53.8498 159.25 53.3198 160.26 53.3198C160.91 53.3198 161.6 53.5398 162.09 53.9198L161.65 54.9098C161.16 54.5798 160.61 54.3898 160.18 54.3898L160.17 54.3998Z" fill="#5E5E5D"/>
<path d="M164.67 54.3998C164.28 54.3998 164 54.5498 164 54.8898C164 55.8398 166.64 55.3398 166.64 57.3598C166.64 58.5098 165.73 59.0698 164.67 59.0698C163.91 59.0698 163.13 58.7998 162.61 58.2798L163.03 57.3198C163.49 57.7598 164.18 58.0098 164.72 58.0098C165.14 58.0098 165.46 57.8498 165.46 57.4798C165.46 56.4398 162.86 57.0098 162.87 55.0098C162.87 53.8498 163.75 53.3198 164.76 53.3198C165.41 53.3198 166.1 53.5398 166.59 53.9198L166.15 54.9098C165.66 54.5798 165.11 54.3898 164.68 54.3898L164.67 54.3998Z" fill="#5E5E5D"/>
<path d="M172.15 56.6796H168.46C168.62 57.4796 169.16 57.9596 169.89 57.9596C170.4 57.9596 170.88 57.7396 171.23 57.3296L171.88 58.0996C171.39 58.7096 170.66 59.0696 169.78 59.0696C168.23 59.0696 167.21 57.9096 167.21 56.2196C167.21 54.5296 168.26 53.3496 169.75 53.3496C171.5 53.3496 172.26 54.6396 172.14 56.6896L172.15 56.6796ZM171.05 55.7596C171.02 54.9296 170.53 54.3996 169.77 54.3996C169.01 54.3996 168.55 54.9296 168.44 55.7596H171.05Z" fill="#5E5E5D"/>
<path d="M176.12 58.6698C175.74 58.9298 175.31 59.0798 174.87 59.0798C174.06 59.0798 173.4 58.5498 173.4 57.3998V54.6198H172.7V53.6198H173.4V52.0698H174.6V53.6198H176.03V54.6198H174.6V57.1598C174.6 57.6998 174.8 57.8798 175.12 57.8798C175.33 57.8798 175.56 57.7898 175.83 57.6498L176.11 58.6798L176.12 58.6698Z" fill="#5E5E5D"/>
<path d="M184.43 51.6499V52.8799H181.17V54.8699H184.13V56.0999H181.17V59.0199H179.92V51.6499H184.43Z" fill="#5E5E5D"/>
<path d="M186.58 51.7698C186.58 52.2098 186.31 52.5298 185.93 52.5298C185.55 52.5298 185.28 52.2098 185.28 51.7698C185.28 51.3298 185.55 51.0098 185.93 51.0098C186.31 51.0098 186.58 51.3298 186.58 51.7698ZM186.53 53.3898V59.0198H185.32V53.3898H186.53Z" fill="#5E5E5D"/>
<path d="M192.88 55.4996V59.0196H191.66V55.8996C191.66 55.1096 191.24 54.6296 190.55 54.6296C189.73 54.6296 189.24 55.3196 189.24 56.2496V59.0196H188.03V53.3896H189.24V54.4396C189.6 53.6896 190.22 53.3396 191.03 53.3296C192.18 53.3296 192.88 54.1596 192.88 55.4996Z" fill="#5E5E5D"/>
<path d="M197.2 59.0196V58.3396C196.85 58.8296 196.29 59.0896 195.58 59.0896C194.51 59.0896 193.83 58.3396 193.83 57.3396C193.83 56.3396 194.51 55.6596 195.72 55.6496H197.18V55.4996C197.18 54.8496 196.8 54.4596 196.05 54.4596C195.58 54.4596 195.08 54.6396 194.57 54.9896L194.13 54.0396C194.85 53.5896 195.41 53.3496 196.32 53.3496C197.63 53.3496 198.36 54.0996 198.37 55.3496V59.0296H197.19L197.2 59.0196ZM197.19 57.0596V56.5496H195.93C195.29 56.5496 194.99 56.7496 194.99 57.2396C194.99 57.7296 195.33 58.0196 195.88 58.0196C196.58 58.0196 197.13 57.5996 197.2 57.0496L197.19 57.0596Z" fill="#5E5E5D"/>
<path d="M204.61 55.4996V59.0196H203.39V55.8996C203.39 55.1096 202.97 54.6296 202.28 54.6296C201.46 54.6296 200.97 55.3196 200.97 56.2496V59.0196H199.76V53.3896H200.97V54.4396C201.33 53.6896 201.95 53.3396 202.76 53.3296C203.91 53.3296 204.61 54.1596 204.61 55.4996Z" fill="#5E5E5D"/>
<path d="M208.1 54.5396C207.3 54.5396 206.74 55.2096 206.74 56.1996C206.74 57.1896 207.3 57.8796 208.1 57.8796C208.68 57.8796 209.15 57.6596 209.44 57.2196L210.2 57.9296C209.76 58.6496 209.01 59.0696 208.03 59.0696C206.54 59.0696 205.51 57.9096 205.51 56.2196C205.51 54.5296 206.55 53.3496 208.05 53.3496C208.96 53.3496 209.69 53.7296 210.14 54.3796L209.4 55.1696C209.08 54.7796 208.64 54.5496 208.09 54.5496L208.1 54.5396Z" fill="#5E5E5D"/>
<path d="M215.53 56.6796H211.84C212 57.4796 212.54 57.9596 213.27 57.9596C213.78 57.9596 214.26 57.7396 214.61 57.3296L215.26 58.0996C214.77 58.7096 214.04 59.0696 213.16 59.0696C211.61 59.0696 210.59 57.9096 210.59 56.2196C210.59 54.5296 211.64 53.3496 213.13 53.3496C214.88 53.3496 215.64 54.6396 215.52 56.6896L215.53 56.6796ZM214.42 55.7596C214.39 54.9296 213.9 54.3996 213.14 54.3996C212.38 54.3996 211.92 54.9296 211.81 55.7596H214.42Z" fill="#5E5E5D"/>
<path d="M3.98997 64.5C5.79594 64.5 7.25997 63.0494 7.25997 61.26C7.25997 59.4706 5.79594 58.02 3.98997 58.02C2.184 58.02 0.719971 59.4706 0.719971 61.26C0.719971 63.0494 2.184 64.5 3.98997 64.5Z" fill="#5E5E5D"/>
<path d="M67.6899 1.8C60.2699 9.72 50.9399 14.23 40.3399 16.35C34.3399 17.55 28.2399 18.39 22.3999 20.22C15.3099 22.44 8.43988 26.53 4.28988 32.78C0.319878 38.79 -0.570122 46.38 0.309878 53.51C0.0598784 51.51 0.939878 48.84 1.44988 46.89C3.02988 40.73 5.52988 35.11 10.2499 30.65C12.4199 28.6 14.9099 26.89 17.5899 25.55C22.6899 23.02 28.3799 21.91 34.0099 20.93C40.1699 19.86 46.4399 18.88 52.2799 16.57C57.7599 14.4 64.3199 10.7 67.4999 5.64C67.2199 6.09 67.3799 6.73 67.3999 7.23C67.8399 19.31 64.9299 32.42 57.9899 42.57C54.1499 48.19 48.9699 52.88 43.1299 56.41C35.0599 61.28 25.7599 63.97 16.3599 64.99C30.2099 64.49 44.1499 59.91 54.5199 50.82C62.2599 44.04 67.6099 34.83 69.3899 24.75C70.1199 20.57 70.3299 16.32 70.2399 12.09C70.1999 10.15 70.1499 8.2 70.0399 6.27C69.9799 5.18 69.8999 4.09 69.7699 3.01C69.7199 2.57 69.0699 0.26 69.2799 0C68.7799 0.63 68.2499 1.24 67.6999 1.82L67.6899 1.8Z" fill="url(#paint6_linear_2406_236)"/>
<defs>
<linearGradient id="paint0_linear_2406_236" x1="82.3899" y1="30.4197" x2="216.99" y2="30.4197" gradientUnits="userSpaceOnUse">
<stop stop-color="#35BDEF"/>
<stop offset="0.42" stop-color="#008DCF"/>
<stop offset="0.79" stop-color="#8E3C8E"/>
</linearGradient>
<linearGradient id="paint1_linear_2406_236" x1="82.3899" y1="30.4199" x2="216.99" y2="30.4199" gradientUnits="userSpaceOnUse">
<stop stop-color="#35BDEF"/>
<stop offset="0.42" stop-color="#008DCF"/>
<stop offset="0.79" stop-color="#8E3C8E"/>
</linearGradient>
<linearGradient id="paint2_linear_2406_236" x1="82.3899" y1="30.4198" x2="216.99" y2="30.4198" gradientUnits="userSpaceOnUse">
<stop stop-color="#35BDEF"/>
<stop offset="0.42" stop-color="#008DCF"/>
<stop offset="0.79" stop-color="#8E3C8E"/>
</linearGradient>
<linearGradient id="paint3_linear_2406_236" x1="82.3899" y1="30.4199" x2="216.99" y2="30.4199" gradientUnits="userSpaceOnUse">
<stop stop-color="#35BDEF"/>
<stop offset="0.42" stop-color="#008DCF"/>
<stop offset="0.79" stop-color="#8E3C8E"/>
</linearGradient>
<linearGradient id="paint4_linear_2406_236" x1="82.3899" y1="30.4199" x2="216.99" y2="30.4199" gradientUnits="userSpaceOnUse">
<stop stop-color="#35BDEF"/>
<stop offset="0.42" stop-color="#008DCF"/>
<stop offset="0.79" stop-color="#8E3C8E"/>
</linearGradient>
<linearGradient id="paint5_linear_2406_236" x1="82.3899" y1="30.4199" x2="216.99" y2="30.4199" gradientUnits="userSpaceOnUse">
<stop stop-color="#35BDEF"/>
<stop offset="0.42" stop-color="#008DCF"/>
<stop offset="0.79" stop-color="#8E3C8E"/>
</linearGradient>
<linearGradient id="paint6_linear_2406_236" x1="-0.000121617" y1="32.48" x2="70.2499" y2="32.48" gradientUnits="userSpaceOnUse">
<stop offset="0.24" stop-color="#28B7EB"/>
<stop offset="0.54" stop-color="#2B84C5"/>
<stop offset="1" stop-color="#8F3C8E"/>
</linearGradient>
</defs>
</svg>
