<svg width="36" height="36" viewBox="0 0 36 36" fill="none" xmlns="http://www.w3.org/2000/svg">
<rect width="36" height="36" rx="18" fill="white"/>
<path d="M24.5 20.75H25.375C25.625 20.75 25.875 20.5 25.875 20.25V11.25C25.875 11 25.625 10.75 25.375 10.75H24.5C24.25 10.75 24 11 24 11.25V20.25C24 20.5 24.25 20.75 24.5 20.75ZM17 20.75H17.875C18.125 20.75 18.375 20.5 18.375 20.25V12.5C18.375 12.25 18.125 12 17.875 12H17C16.75 12 16.5 12.25 16.5 12.5V20.25C16.5 20.5 16.75 20.75 17 20.75ZM20.75 20.75H21.625C21.875 20.75 22.125 20.5 22.125 20.25V15C22.125 14.75 21.875 14.5 21.625 14.5H20.75C20.5 14.5 20.25 14.75 20.25 15V20.25C20.25 20.5 20.5 20.75 20.75 20.75ZM28.375 22.625H10.875V10.125C10.875 9.77969 10.5953 9.5 10.25 9.5H9.625C9.27969 9.5 9 9.77969 9 10.125V23.25C9 23.9402 9.55977 24.5 10.25 24.5H28.375C28.7203 24.5 29 24.2203 29 23.875V23.25C29 22.9047 28.7203 22.625 28.375 22.625ZM13.25 20.75H14.125C14.375 20.75 14.625 20.5 14.625 20.25V17.5C14.625 17.25 14.375 17 14.125 17H13.25C13 17 12.75 17.25 12.75 17.5V20.25C12.75 20.5 13 20.75 13.25 20.75Z" fill="#FFA800"/>
</svg>
